<svg width="43" height="42" viewBox="0 0 43 42" fill="none" xmlns="http://www.w3.org/2000/svg">
<path d="M21.5 42C33.0791 42 42.5 32.5791 42.5 21C42.5 9.42093 33.0791 0 21.5 0C9.92093 0 0.5 9.42093 0.5 21C0.5 32.5791 9.92093 42 21.5 42ZM21.5 38.7692C11.6672 38.7692 3.73077 30.8328 3.73077 21C3.73077 11.1672 11.6672 3.23077 21.5 3.23077C31.3328 3.23077 39.2692 11.1672 39.2692 21C39.2692 30.8328 31.3328 38.7692 21.5 38.7692ZM24.3754 31.8554L26.7015 29.5292L18.1658 21L26.6983 12.4708L24.3722 10.1446L14.6798 19.8369L13.5717 21L14.6815 22.1631L24.3754 31.8554Z" fill="#CBCDCC"/>
</svg>
