<svg width="13" height="14" viewBox="0 0 13 14" fill="none" xmlns="http://www.w3.org/2000/svg">
<path d="M6.5 0.5C5.21442 0.5 3.95772 0.881218 2.8888 1.59545C1.81988 2.30968 0.986756 3.32484 0.494786 4.51256C0.00281635 5.70028 -0.125905 7.00721 0.124899 8.26809C0.375703 9.52896 0.994767 10.6872 1.90381 11.5962C2.81285 12.5052 3.97104 13.1243 5.23192 13.3751C6.49279 13.6259 7.79973 13.4972 8.98744 13.0052C10.1752 12.5132 11.1903 11.6801 11.9046 10.6112C12.6188 9.54229 13 8.28558 13 7C12.9982 5.27665 12.3128 3.62441 11.0942 2.40582C9.8756 1.18722 8.22335 0.50182 6.5 0.5ZM6.5 12.5C5.41221 12.5 4.34884 12.1774 3.44437 11.5731C2.5399 10.9687 1.83495 10.1098 1.41867 9.10476C1.00238 8.09977 0.893465 6.9939 1.10568 5.927C1.3179 4.86011 1.84173 3.8801 2.61092 3.11091C3.3801 2.34172 4.36011 1.8179 5.42701 1.60568C6.4939 1.39346 7.59977 1.50238 8.60476 1.91866C9.60976 2.33494 10.4687 3.03989 11.0731 3.94436C11.6774 4.84883 12 5.9122 12 7C11.9983 8.45818 11.4184 9.85617 10.3873 10.8873C9.35617 11.9184 7.95819 12.4983 6.5 12.5ZM9.35375 6.64625C9.40024 6.69269 9.43712 6.74783 9.46228 6.80853C9.48744 6.86923 9.5004 6.93429 9.5004 7C9.5004 7.06571 9.48744 7.13077 9.46228 7.19147C9.43712 7.25217 9.40024 7.30731 9.35375 7.35375L7.35375 9.35375C7.25993 9.44757 7.13268 9.50028 7 9.50028C6.86732 9.50028 6.74007 9.44757 6.64625 9.35375C6.55243 9.25993 6.49972 9.13268 6.49972 9C6.49972 8.86732 6.55243 8.74007 6.64625 8.64625L7.79313 7.5H4C3.86739 7.5 3.74022 7.44732 3.64645 7.35355C3.55268 7.25979 3.5 7.13261 3.5 7C3.5 6.86739 3.55268 6.74021 3.64645 6.64645C3.74022 6.55268 3.86739 6.5 4 6.5H7.79313L6.64625 5.35375C6.55243 5.25993 6.49972 5.13268 6.49972 5C6.49972 4.86732 6.55243 4.74007 6.64625 4.64625C6.74007 4.55243 6.86732 4.49972 7 4.49972C7.13268 4.49972 7.25993 4.55243 7.35375 4.64625L9.35375 6.64625Z" fill="#1F7964"/>
</svg>
