<svg width="50" height="50" viewBox="0 0 50 50" fill="none" xmlns="http://www.w3.org/2000/svg">
<path d="M25 49.375C29.8209 49.375 34.5336 47.9454 38.542 45.2671C42.5505 42.5887 45.6747 38.7819 47.5196 34.3279C49.3644 29.874 49.8471 24.973 48.9066 20.2447C47.9661 15.5164 45.6446 11.1732 42.2357 7.76427C38.8268 4.35537 34.4836 2.03388 29.7553 1.09336C25.027 0.152846 20.126 0.635552 15.6721 2.48044C11.2181 4.32532 7.41128 7.44953 4.73292 11.458C2.05456 15.4664 0.624989 20.1791 0.624989 25C0.631813 31.4626 3.20208 37.6585 7.7718 42.2282C12.3415 46.7979 18.5374 49.3682 25 49.375ZM25 4.375C29.0792 4.375 33.0669 5.58464 36.4586 7.85094C39.8504 10.1172 42.4939 13.3384 44.055 17.1072C45.6161 20.8759 46.0245 25.0229 45.2287 29.0237C44.4329 33.0246 42.4685 36.6996 39.5841 39.5841C36.6996 42.4685 33.0246 44.4329 29.0237 45.2287C25.0229 46.0245 20.8759 45.6161 17.1071 44.055C13.3384 42.494 10.1172 39.8504 7.85093 36.4586C5.58463 33.0669 4.37499 29.0792 4.37499 25C4.38119 19.5318 6.55617 14.2894 10.4228 10.4228C14.2894 6.55618 19.5318 4.3812 25 4.375ZM14.2984 26.3266C14.1241 26.1524 13.9858 25.9456 13.8914 25.718C13.7971 25.4904 13.7485 25.2464 13.7485 25C13.7485 24.7536 13.7971 24.5096 13.8914 24.282C13.9858 24.0544 14.1241 23.8476 14.2984 23.6734L21.7984 16.1734C22.1503 15.8216 22.6274 15.624 23.125 15.624C23.6225 15.624 24.0997 15.8216 24.4516 16.1734C24.8034 16.5253 25.001 17.0024 25.001 17.5C25.001 17.9976 24.8034 18.4747 24.4516 18.8266L20.1508 23.125H34.375C34.8723 23.125 35.3492 23.3225 35.7008 23.6742C36.0524 24.0258 36.25 24.5027 36.25 25C36.25 25.4973 36.0524 25.9742 35.7008 26.3258C35.3492 26.6775 34.8723 26.875 34.375 26.875H20.1508L24.4516 31.1734C24.8034 31.5253 25.001 32.0024 25.001 32.5C25.001 32.9976 24.8034 33.4747 24.4516 33.8266C24.0997 34.1784 23.6225 34.376 23.125 34.376C22.6274 34.376 22.1503 34.1784 21.7984 33.8266L14.2984 26.3266Z" fill="#1F7964"/>
</svg>
