<svg width="60" height="60" viewBox="0 0 60 60" fill="none" xmlns="http://www.w3.org/2000/svg">
<path d="M30 5.625C25.1791 5.625 20.4664 7.05457 16.458 9.73293C12.4495 12.4113 9.32533 16.2181 7.48045 20.6721C5.63556 25.126 5.15285 30.027 6.09337 34.7553C7.03388 39.4836 9.35538 43.8268 12.7643 47.2357C16.1732 50.6446 20.5164 52.9661 25.2447 53.9066C29.973 54.8472 34.874 54.3644 39.3279 52.5196C43.7819 50.6747 47.5887 47.5505 50.2671 43.542C52.9454 39.5336 54.375 34.8209 54.375 30C54.3682 23.5374 51.7979 17.3415 47.2282 12.7718C42.6585 8.20209 36.4626 5.63182 30 5.625ZM30 50.625C25.9208 50.625 21.9331 49.4154 18.5414 47.1491C15.1496 44.8828 12.5061 41.6616 10.945 37.8928C9.38394 34.1241 8.97549 29.9771 9.77131 25.9763C10.5671 21.9754 12.5315 18.3004 15.4159 15.4159C18.3004 12.5315 21.9754 10.5671 25.9763 9.7713C29.9771 8.97548 34.1241 9.38393 37.8929 10.945C41.6616 12.506 44.8828 15.1496 47.1491 18.5414C49.4154 21.9331 50.625 25.9208 50.625 30C50.6188 35.4682 48.4438 40.7106 44.5772 44.5772C40.7106 48.4438 35.4682 50.6188 30 50.625ZM40.7016 28.6734C40.8759 28.8476 41.0142 29.0544 41.1086 29.282C41.2029 29.5096 41.2515 29.7536 41.2515 30C41.2515 30.2464 41.2029 30.4904 41.1086 30.718C41.0142 30.9456 40.8759 31.1524 40.7016 31.3266L33.2016 38.8266C32.8497 39.1784 32.3726 39.376 31.875 39.376C31.3775 39.376 30.9003 39.1784 30.5484 38.8266C30.1966 38.4747 29.999 37.9976 29.999 37.5C29.999 37.0024 30.1966 36.5253 30.5484 36.1734L34.8492 31.875H20.625C20.1277 31.875 19.6508 31.6775 19.2992 31.3258C18.9476 30.9742 18.75 30.4973 18.75 30C18.75 29.5027 18.9476 29.0258 19.2992 28.6742C19.6508 28.3225 20.1277 28.125 20.625 28.125H34.8492L30.5484 23.8266C30.1966 23.4747 29.999 22.9976 29.999 22.5C29.999 22.0024 30.1966 21.5253 30.5484 21.1734C30.9003 20.8216 31.3775 20.624 31.875 20.624C32.3726 20.624 32.8497 20.8216 33.2016 21.1734L40.7016 28.6734Z" fill="#1F7964"/>
</svg>
