<svg width="21" height="20" viewBox="0 0 21 20" fill="none" xmlns="http://www.w3.org/2000/svg">
<path d="M7.05722 12.8826L6.33333 18.3327L10.157 16.0385C10.2817 15.9637 10.3441 15.9262 10.4106 15.9116C10.4695 15.8987 10.5305 15.8987 10.5894 15.9116C10.6559 15.9262 10.7183 15.9637 10.843 16.0385L14.6667 18.3327L13.9433 12.8803M14.1882 3.54008C14.3169 3.85135 14.564 4.09876 14.875 4.22794L15.9658 4.67975C16.2771 4.80869 16.5244 5.05601 16.6533 5.3673C16.7822 5.67859 16.7822 6.02836 16.6533 6.33965L16.2018 7.42964C16.0728 7.74107 16.0726 8.09119 16.2022 8.40247L16.6529 9.49214C16.7168 9.64632 16.7498 9.81158 16.7498 9.97848C16.7498 10.1454 16.7169 10.3107 16.6531 10.4649C16.5892 10.6191 16.4956 10.7592 16.3775 10.8772C16.2595 10.9952 16.1194 11.0887 15.9652 11.1526L14.8752 11.6041C14.564 11.7328 14.3166 11.9798 14.1874 12.2909L13.7356 13.3817C13.6067 13.6929 13.3593 13.9403 13.0481 14.0692C12.7368 14.1981 12.387 14.1981 12.0758 14.0692L10.9858 13.6177C10.6745 13.4891 10.3249 13.4894 10.0138 13.6184L8.92306 14.0696C8.61195 14.1983 8.26251 14.1981 7.95148 14.0693C7.64045 13.9405 7.39328 13.6934 7.26426 13.3825L6.81232 12.2914C6.68363 11.9801 6.43659 11.7327 6.12553 11.6035L5.03479 11.1517C4.72365 11.0228 4.47641 10.7757 4.34743 10.4646C4.21844 10.1534 4.21827 9.80385 4.34694 9.49261L4.79841 8.40261C4.92703 8.09131 4.92677 7.74167 4.79768 7.43057L4.34686 6.33901C4.28294 6.18483 4.25003 6.01956 4.25 5.85266C4.24997 5.68576 4.28283 5.52049 4.3467 5.36629C4.41057 5.21209 4.5042 5.07199 4.62223 4.95399C4.74026 4.83599 4.88039 4.7424 5.0346 4.67858L6.12456 4.22709C6.43554 4.0985 6.6828 3.85177 6.81206 3.54105L7.26386 2.45027C7.3928 2.13898 7.64011 1.89166 7.95139 1.76272C8.26267 1.63378 8.61242 1.63378 8.9237 1.76272L10.0137 2.21421C10.3249 2.34284 10.6746 2.34257 10.9857 2.21348L12.0769 1.76342C12.3881 1.63455 12.7378 1.63458 13.049 1.76349C13.3602 1.89241 13.6075 2.13966 13.7364 2.45087L14.1884 3.54197L14.1882 3.54008Z" stroke="#252533" stroke-width="1.5" stroke-linecap="round" stroke-linejoin="round"/>
</svg>
