<svg width="41" height="40" viewBox="0 0 41 40" fill="none" xmlns="http://www.w3.org/2000/svg">
<rect x="0.333984" width="40" height="40" rx="6" fill="#E5EFEC"/>
<path d="M18.9338 13.1572C17.4537 12.4359 15.791 12.0312 14.0338 12.0312C12.2766 12.0312 10.6139 12.4359 9.13379 13.1572V27.1572C10.6139 26.4359 12.2766 26.0312 14.0338 26.0312C16.3698 26.0312 18.5388 26.7464 20.3338 27.9698C22.1287 26.7464 24.2977 26.0312 26.6338 26.0312C28.391 26.0312 30.0537 26.4359 31.5338 27.1572V13.1572C30.0537 12.4359 28.391 12.0312 26.6338 12.0312C24.8766 12.0312 23.2139 12.4359 21.7338 13.1572V23.2312C21.7338 24.0044 21.107 24.6312 20.3338 24.6312C19.5606 24.6312 18.9338 24.0044 18.9338 23.2312V13.1572Z" fill="url(#paint0_linear_10933_7107)"/>
<defs>
<linearGradient id="paint0_linear_10933_7107" x1="20.2861" y1="11.003" x2="20.2861" y2="29.2552" gradientUnits="userSpaceOnUse">
<stop stop-color="#00664E"/>
<stop offset="1" stop-color="#009975"/>
</linearGradient>
</defs>
</svg>
