<svg width="40" height="40" viewBox="0 0 40 40" fill="none" xmlns="http://www.w3.org/2000/svg">
<rect width="40" height="40" rx="6" fill="#E5EFEC"/>
<path fill-rule="evenodd" clip-rule="evenodd" d="M14.4008 14.3998V12.9998C14.4008 10.6802 16.2812 8.7998 18.6008 8.7998H21.4008C23.7204 8.7998 25.6008 10.6802 25.6008 12.9998V14.3998H28.4008C29.9472 14.3998 31.2008 15.6534 31.2008 17.1998V22.1989C27.7143 23.4924 23.9416 24.1997 20.0008 24.1997C16.06 24.1997 12.2873 23.4924 8.80078 22.1988V17.1998C8.80078 15.6534 10.0544 14.3998 11.6008 14.3998H14.4008ZM17.2008 12.9998C17.2008 12.2266 17.8276 11.5998 18.6008 11.5998H21.4008C22.174 11.5998 22.8008 12.2266 22.8008 12.9998V14.3998H17.2008V12.9998ZM18.6008 19.9998C18.6008 19.2266 19.2276 18.5998 20.0008 18.5998H20.0148C20.788 18.5998 21.4148 19.2266 21.4148 19.9998C21.4148 20.773 20.788 21.3998 20.0148 21.3998H20.0008C19.2276 21.3998 18.6008 20.773 18.6008 19.9998Z" fill="url(#paint0_linear_7466_11217)"/>
<path d="M8.80078 25.169V28.3998C8.80078 29.9462 10.0544 31.1998 11.6008 31.1998H28.4008C29.9472 31.1998 31.2008 29.9462 31.2008 28.3998V25.169C27.6829 26.3564 23.9157 26.9997 20.0008 26.9997C16.0859 26.9997 12.3187 26.3564 8.80078 25.169Z" fill="url(#paint1_linear_7466_11217)"/>
<defs>
<linearGradient id="paint0_linear_7466_11217" x1="19.9531" y1="7.35464" x2="19.9531" y2="33.0063" gradientUnits="userSpaceOnUse">
<stop stop-color="#00664E"/>
<stop offset="1" stop-color="#009975"/>
</linearGradient>
<linearGradient id="paint1_linear_7466_11217" x1="19.9531" y1="7.35464" x2="19.9531" y2="33.0063" gradientUnits="userSpaceOnUse">
<stop stop-color="#00664E"/>
<stop offset="1" stop-color="#009975"/>
</linearGradient>
</defs>
</svg>
