<svg width="21" height="20" viewBox="0 0 21 20" fill="none" xmlns="http://www.w3.org/2000/svg">
<path d="M18 8.33268H3M13.8333 1.66602V4.99935M7.16667 1.66602V4.99935M7 18.3327H14C15.4001 18.3327 16.1002 18.3327 16.635 18.0602C17.1054 17.8205 17.4878 17.4381 17.7275 16.9677C18 16.4329 18 15.7328 18 14.3327V7.33268C18 5.93255 18 5.23249 17.7275 4.69771C17.4878 4.2273 17.1054 3.84485 16.635 3.60517C16.1002 3.33268 15.4001 3.33268 14 3.33268H7C5.59987 3.33268 4.8998 3.33268 4.36502 3.60517C3.89462 3.84485 3.51217 4.2273 3.27248 4.69771C3 5.23249 3 5.93255 3 7.33268V14.3327C3 15.7328 3 16.4329 3.27248 16.9677C3.51217 17.4381 3.89462 17.8205 4.36502 18.0602C4.8998 18.3327 5.59987 18.3327 7 18.3327Z" stroke="#3A3A45" stroke-width="1.5" stroke-linecap="round" stroke-linejoin="round"/>
</svg>
