<svg width="24" height="24" viewBox="0 0 24 24" fill="none" xmlns="http://www.w3.org/2000/svg">
<path fill-rule="evenodd" clip-rule="evenodd" d="M6.12023 0.240234C5.30838 0.240234 4.65023 0.898376 4.65023 1.71023V3.18023H3.18023C1.55652 3.18023 0.240234 4.49652 0.240234 6.12023V20.8202C0.240234 22.444 1.55652 23.7602 3.18023 23.7602H20.8202C22.444 23.7602 23.7602 22.444 23.7602 20.8202V6.12023C23.7602 4.49652 22.444 3.18023 20.8202 3.18023H19.3502V1.71023C19.3502 0.898376 18.6921 0.240234 17.8802 0.240234C17.0684 0.240234 16.4102 0.898376 16.4102 1.71023V3.18023H7.59023V1.71023C7.59023 0.898376 6.93209 0.240234 6.12023 0.240234ZM6.12023 7.59023C5.30838 7.59023 4.65023 8.24837 4.65023 9.06023C4.65023 9.87209 5.30838 10.5302 6.12023 10.5302H17.8802C18.6921 10.5302 19.3502 9.87209 19.3502 9.06023C19.3502 8.24837 18.6921 7.59023 17.8802 7.59023H6.12023Z" fill="#656767"/>
</svg>
