<svg width="32" height="32" viewBox="0 0 32 32" fill="none" xmlns="http://www.w3.org/2000/svg">
<path d="M31.7209 6.35045C31.6097 6.21733 31.4706 6.11026 31.3134 6.0368C31.1562 5.96334 30.9849 5.92528 30.8114 5.92531H6.91479L6.19042 1.94646C6.09121 1.40035 5.80347 0.90638 5.37739 0.550671C4.9513 0.194963 4.41388 8.02204e-05 3.85883 0H1.18505C0.870758 0 0.569335 0.124854 0.347094 0.347096C0.124853 0.569339 0 0.870764 0 1.18506C0 1.49936 0.124853 1.80078 0.347094 2.02303C0.569335 2.24527 0.870758 2.37012 1.18505 2.37012H3.85142L7.63767 23.1517C7.7492 23.768 8.02157 24.3439 8.42721 24.8211C7.86734 25.3441 7.46324 26.0118 7.25972 26.7504C7.0562 27.489 7.06121 28.2695 7.2742 29.0054C7.48718 29.7413 7.89982 30.4038 8.46636 30.9195C9.03289 31.4352 9.73119 31.784 10.4838 31.927C11.2364 32.0701 12.014 32.0019 12.7302 31.7301C13.4465 31.4582 14.0734 30.9933 14.5416 30.3869C15.0097 29.7804 15.3008 29.0562 15.3824 28.2945C15.4641 27.5327 15.3332 26.7632 15.0043 26.0714H21.7324C21.4673 26.6264 21.3301 27.2338 21.331 27.8489C21.331 28.6693 21.5742 29.4712 22.03 30.1533C22.4857 30.8354 23.1335 31.367 23.8914 31.6809C24.6493 31.9949 25.4833 32.077 26.2878 31.917C27.0924 31.7569 27.8314 31.3619 28.4115 30.7818C28.9916 30.2018 29.3866 29.4627 29.5466 28.6581C29.7067 27.8535 29.6245 27.0196 29.3106 26.2617C28.9967 25.5038 28.4651 24.856 27.783 24.4003C27.1009 23.9445 26.299 23.7012 25.4787 23.7012H11.1351C10.8575 23.7012 10.5888 23.6038 10.3758 23.4259C10.1627 23.248 10.0189 23.0011 9.96926 22.728L9.49969 20.146H26.683C27.5155 20.1459 28.3217 19.8536 28.9608 19.32C29.5999 18.7865 30.0315 18.0455 30.1804 17.2264L31.9816 7.3222C32.0121 7.15102 32.0046 6.97522 31.9595 6.80728C31.9145 6.63934 31.833 6.48338 31.7209 6.35045ZM13.0356 27.8489C13.0356 28.2005 12.9313 28.5442 12.736 28.8365C12.5407 29.1289 12.2631 29.3567 11.9383 29.4912C11.6134 29.6258 11.256 29.661 10.9112 29.5924C10.5664 29.5238 10.2497 29.3545 10.0011 29.1059C9.75247 28.8573 9.58317 28.5406 9.51458 28.1957C9.446 27.8509 9.4812 27.4935 9.61574 27.1687C9.75028 26.8439 9.97812 26.5663 10.2704 26.3709C10.5628 26.1756 10.9064 26.0714 11.258 26.0714C11.7295 26.0714 12.1816 26.2586 12.5149 26.592C12.8483 26.9254 13.0356 27.3775 13.0356 27.8489ZM27.2562 27.8489C27.2562 28.2005 27.152 28.5442 26.9567 28.8365C26.7613 29.1289 26.4837 29.3567 26.1589 29.4912C25.8341 29.6258 25.4767 29.661 25.1319 29.5924C24.787 29.5238 24.4703 29.3545 24.2217 29.1059C23.9731 28.8573 23.8038 28.5406 23.7352 28.1957C23.6666 27.8509 23.7018 27.4935 23.8364 27.1687C23.9709 26.8439 24.1988 26.5663 24.4911 26.3709C24.7834 26.1756 25.1271 26.0714 25.4787 26.0714C25.9501 26.0714 26.4022 26.2586 26.7356 26.592C27.069 26.9254 27.2562 27.3775 27.2562 27.8489ZM27.8488 16.8027C27.799 17.0765 27.6545 17.3241 27.4405 17.502C27.2266 17.68 26.9568 17.7769 26.6785 17.7759H9.06862L7.34585 8.29543H29.3908L27.8488 16.8027Z" fill="#323433"/>
</svg>
