<svg width="24" height="24" viewBox="0 0 24 24" fill="none" xmlns="http://www.w3.org/2000/svg">
<path fill-rule="evenodd" clip-rule="evenodd" d="M12.0008 23.1998C18.1864 23.1998 23.2008 18.1854 23.2008 11.9998C23.2008 5.81422 18.1864 0.799805 12.0008 0.799805C5.81519 0.799805 0.800781 5.81422 0.800781 11.9998C0.800781 18.1854 5.81519 23.1998 12.0008 23.1998ZM13.0008 6.39981C13.0008 5.84752 12.5531 5.39981 12.0008 5.39981C11.4485 5.39981 11.0008 5.84752 11.0008 6.39981V11.9998C11.0008 12.265 11.1061 12.5194 11.2937 12.7069L15.2535 16.6667C15.644 17.0572 16.2772 17.0572 16.6677 16.6667C17.0582 16.2762 17.0582 15.643 16.6677 15.2525L13.0008 11.5856V6.39981Z" fill="#656767"/>
</svg>
