<svg width="14" height="14" viewBox="0 0 14 14" fill="none" xmlns="http://www.w3.org/2000/svg">
<path d="M12.9929 12.1832C13.052 12.2412 13.099 12.3102 13.131 12.386C13.163 12.4619 13.1795 12.5432 13.1795 12.6253C13.1795 12.7075 13.163 12.7888 13.131 12.8647C13.099 12.9405 13.052 13.0095 12.9929 13.0675C12.9337 13.1256 12.8635 13.1717 12.7862 13.2031C12.7089 13.2345 12.626 13.2507 12.5423 13.2507C12.4587 13.2507 12.3758 13.2345 12.2985 13.2031C12.2212 13.1717 12.151 13.1256 12.0918 13.0675L6.81103 7.88394L1.53027 13.0675C1.41078 13.1848 1.24872 13.2507 1.07973 13.2507C0.910744 13.2507 0.748679 13.1848 0.629187 13.0675C0.509696 12.9503 0.442566 12.7912 0.442566 12.6253C0.442566 12.4595 0.509696 12.3004 0.629187 12.1832L5.91074 7.00035L0.629187 1.81753C0.509696 1.70026 0.442566 1.5412 0.442566 1.37535C0.442566 1.2095 0.509696 1.05044 0.629187 0.93316C0.748679 0.815885 0.910744 0.75 1.07973 0.75C1.24872 0.75 1.41078 0.815885 1.53027 0.93316L6.81103 6.11675L12.0918 0.93316C12.2113 0.815885 12.3733 0.75 12.5423 0.75C12.7113 0.75 12.8734 0.815885 12.9929 0.93316C13.1124 1.05044 13.1795 1.2095 13.1795 1.37535C13.1795 1.5412 13.1124 1.70026 12.9929 1.81753L7.71132 7.00035L12.9929 12.1832Z" fill="#323433"/>
</svg>
