<svg width="16" height="17" viewBox="0 0 16 17" fill="none" xmlns="http://www.w3.org/2000/svg">
<path d="M14.875 2.90625H11.5938V2.125C11.5938 1.66916 11.4127 1.23199 11.0903 0.90966C10.768 0.587332 10.3308 0.40625 9.875 0.40625H6.125C5.66916 0.40625 5.23199 0.587332 4.90966 0.90966C4.58733 1.23199 4.40625 1.66916 4.40625 2.125V2.90625H1.125C1.00068 2.90625 0.881451 2.95564 0.793544 3.04354C0.705636 3.13145 0.65625 3.25068 0.65625 3.375C0.65625 3.49932 0.705636 3.61855 0.793544 3.70646C0.881451 3.79436 1.00068 3.84375 1.125 3.84375H1.90625V15.25C1.90625 15.5401 2.02148 15.8183 2.2266 16.0234C2.43172 16.2285 2.70992 16.3438 3 16.3438H13C13.2901 16.3438 13.5683 16.2285 13.7734 16.0234C13.9785 15.8183 14.0938 15.5401 14.0938 15.25V3.84375H14.875C14.9993 3.84375 15.1185 3.79436 15.2065 3.70646C15.2944 3.61855 15.3438 3.49932 15.3438 3.375C15.3438 3.25068 15.2944 3.13145 15.2065 3.04354C15.1185 2.95564 14.9993 2.90625 14.875 2.90625ZM5.34375 2.125C5.34375 1.9178 5.42606 1.71909 5.57257 1.57257C5.71909 1.42606 5.9178 1.34375 6.125 1.34375H9.875C10.0822 1.34375 10.2809 1.42606 10.4274 1.57257C10.5739 1.71909 10.6562 1.9178 10.6562 2.125V2.90625H5.34375V2.125ZM13.1562 15.25C13.1562 15.2914 13.1398 15.3312 13.1105 15.3605C13.0812 15.3898 13.0414 15.4062 13 15.4062H3C2.95856 15.4062 2.91882 15.3898 2.88951 15.3605C2.86021 15.3312 2.84375 15.2914 2.84375 15.25V3.84375H13.1562V15.25ZM6.59375 7.125V12.125C6.59375 12.2493 6.54436 12.3685 6.45646 12.4565C6.36855 12.5444 6.24932 12.5938 6.125 12.5938C6.00068 12.5938 5.88145 12.5444 5.79354 12.4565C5.70564 12.3685 5.65625 12.2493 5.65625 12.125V7.125C5.65625 7.00068 5.70564 6.88145 5.79354 6.79354C5.88145 6.70564 6.00068 6.65625 6.125 6.65625C6.24932 6.65625 6.36855 6.70564 6.45646 6.79354C6.54436 6.88145 6.59375 7.00068 6.59375 7.125ZM10.3438 7.125V12.125C10.3438 12.2493 10.2944 12.3685 10.2065 12.4565C10.1185 12.5444 9.99932 12.5938 9.875 12.5938C9.75068 12.5938 9.63145 12.5444 9.54354 12.4565C9.45564 12.3685 9.40625 12.2493 9.40625 12.125V7.125C9.40625 7.00068 9.45564 6.88145 9.54354 6.79354C9.63145 6.70564 9.75068 6.65625 9.875 6.65625C9.99932 6.65625 10.1185 6.70564 10.2065 6.79354C10.2944 6.88145 10.3438 7.00068 10.3438 7.125Z" fill="#323433"/>
</svg>
