<svg width="17" height="16" viewBox="0 0 17 16" fill="none" xmlns="http://www.w3.org/2000/svg">
<path d="M12.5957 8C12.5957 8.13261 12.543 8.25979 12.4493 8.35355C12.3555 8.44732 12.2283 8.5 12.0957 8.5H4.0957C3.96309 8.5 3.83592 8.44732 3.74215 8.35355C3.64838 8.25979 3.5957 8.13261 3.5957 8C3.5957 7.86739 3.64838 7.74021 3.74215 7.64645C3.83592 7.55268 3.96309 7.5 4.0957 7.5H12.0957C12.2283 7.5 12.3555 7.55268 12.4493 7.64645C12.543 7.74021 12.5957 7.86739 12.5957 8ZM14.5957 4.5H1.5957C1.46309 4.5 1.33592 4.55268 1.24215 4.64645C1.14838 4.74021 1.0957 4.86739 1.0957 5C1.0957 5.13261 1.14838 5.25979 1.24215 5.35355C1.33592 5.44732 1.46309 5.5 1.5957 5.5H14.5957C14.7283 5.5 14.8555 5.44732 14.9493 5.35355C15.043 5.25979 15.0957 5.13261 15.0957 5C15.0957 4.86739 15.043 4.74021 14.9493 4.64645C14.8555 4.55268 14.7283 4.5 14.5957 4.5ZM9.5957 10.5H6.5957C6.46309 10.5 6.33592 10.5527 6.24215 10.6464C6.14838 10.7402 6.0957 10.8674 6.0957 11C6.0957 11.1326 6.14838 11.2598 6.24215 11.3536C6.33592 11.4473 6.46309 11.5 6.5957 11.5H9.5957C9.72831 11.5 9.85549 11.4473 9.94926 11.3536C10.043 11.2598 10.0957 11.1326 10.0957 11C10.0957 10.8674 10.043 10.7402 9.94926 10.6464C9.85549 10.5527 9.72831 10.5 9.5957 10.5Z" fill="#656767"/>
</svg>
