<svg width="24" height="24" viewBox="0 0 24 24" fill="none" xmlns="http://www.w3.org/2000/svg">
<path d="M5.44809 23.4942V7.9831H0.303253V23.4942H5.44862H5.44809ZM2.87674 5.86568C4.67048 5.86568 5.7872 4.67461 5.7872 3.18611C5.75362 1.66369 4.67048 0.505859 2.91086 0.505859C1.15003 0.505859 0 1.66369 0 3.18597C0 4.67447 1.11632 5.86555 2.84303 5.86555H2.87634L2.87674 5.86568ZM8.29582 23.4942H13.4403V14.833C13.4403 14.3701 13.4738 13.9059 13.6097 13.5752C13.9815 12.6486 14.828 11.6894 16.2496 11.6894C18.1107 11.6894 18.8557 13.1117 18.8557 15.1971V23.4942H24V14.6006C24 9.83646 21.4622 7.61945 18.0774 7.61945C15.3023 7.61945 14.0836 9.17376 13.4064 10.2324H13.4407V7.98363H8.29609C8.36324 9.43876 8.29569 23.4947 8.29569 23.4947L8.29582 23.4942Z" fill="#656767"/>
</svg>
