<svg width="18" height="18" viewBox="0 0 18 18" fill="none" xmlns="http://www.w3.org/2000/svg">
<path d="M1.31121 8.28645C0.475253 9.22008 0.457268 10.6287 1.22448 11.6196C2.74694 13.5859 4.4133 15.2522 6.37962 16.7747C7.37052 17.5419 8.77911 17.5239 9.71274 16.688C12.2476 14.4183 14.569 12.0464 16.8093 9.43979C17.0307 9.18209 17.1693 8.86624 17.2004 8.52786C17.3379 7.03149 17.6203 2.7204 16.4496 1.54962C15.2788 0.378846 10.9677 0.661309 9.47132 0.798807C9.13295 0.8299 8.81709 0.968447 8.55939 1.18993C5.95279 3.43022 3.58085 5.75159 1.31121 8.28645Z" fill="#656767"/>
<path d="M4.83203 10.6665L7.33203 13.1665" stroke="#656767" stroke-width="1.5" stroke-linecap="round" stroke-linejoin="round"/>
<circle cx="1.25" cy="1.25" r="1.25" transform="matrix(1 0 0 -1 12.332 5.6665)" fill="white"/>
</svg>
