<svg width="24" height="20" viewBox="0 0 24 20" fill="none" xmlns="http://www.w3.org/2000/svg">
<path d="M23.8933 2.4685C23.1169 2.80332 22.3007 3.03646 21.4649 3.16218C21.8557 3.09505 22.4307 2.39019 22.6595 2.10489C23.0073 1.67454 23.2723 1.18326 23.4411 0.656006C23.4411 0.616847 23.4802 0.560906 23.4411 0.532935C23.4214 0.522163 23.3993 0.516518 23.3769 0.516518C23.3545 0.516518 23.3324 0.522163 23.3127 0.532935C22.4051 1.02545 21.4392 1.40136 20.4378 1.65176C20.4029 1.66245 20.3657 1.6634 20.3303 1.65453C20.2949 1.64566 20.2626 1.6273 20.2368 1.60141C20.1588 1.5084 20.0749 1.42057 19.9856 1.33849C19.5771 0.971766 19.1137 0.671618 18.6123 0.449023C17.9355 0.170758 17.2044 0.050248 16.4743 0.096593C15.7658 0.141429 15.0742 0.331847 14.4423 0.656006C13.8201 0.997764 13.2732 1.46205 12.8346 2.02097C12.3732 2.59625 12.0401 3.26386 11.8576 3.97892C11.7072 4.65908 11.6902 5.36206 11.8074 6.04875C11.8074 6.16622 11.8074 6.183 11.7069 6.16622C7.72667 5.57884 4.46098 4.16352 1.7926 1.12591C1.67537 0.991654 1.61396 0.991654 1.51906 1.12591C0.357928 2.89366 0.921749 5.69072 2.37317 7.07247C2.56855 7.25708 2.76952 7.43609 2.98165 7.60391C2.31618 7.55657 1.66697 7.37585 1.07247 7.07247C0.960825 6.99975 0.899419 7.03891 0.893837 7.17316C0.878012 7.3593 0.878012 7.54644 0.893837 7.73258C1.01032 8.62461 1.36113 9.46965 1.91039 10.1813C2.45965 10.8929 3.18766 11.4455 4.01997 11.7827C4.22287 11.8698 4.43428 11.9354 4.65078 11.9785C4.03472 12.1001 3.40288 12.119 2.78068 12.0345C2.64671 12.0065 2.59646 12.0792 2.64671 12.2079C3.46732 14.4455 5.2481 15.128 6.55437 15.5084C6.73301 15.5364 6.91165 15.5364 7.11261 15.5811C7.11261 15.5811 7.11261 15.5811 7.07912 15.6147C6.69393 16.3196 5.13645 16.7951 4.4219 17.0412C3.11768 17.5107 1.72713 17.6901 0.346763 17.5671C0.12905 17.5335 0.0788087 17.5391 0.0229849 17.5671C-0.032839 17.595 0.0229849 17.6566 0.0843911 17.7125C0.36351 17.8971 0.642629 18.0593 0.932913 18.216C1.79709 18.6883 2.7107 19.0635 3.65712 19.3348C8.55845 20.6886 14.0738 19.6928 17.7526 16.0287C20.6443 13.1533 21.6603 9.18705 21.6603 5.21522C21.6603 5.06418 21.8445 4.97467 21.9506 4.89635C22.6822 4.32513 23.3271 3.65054 23.8653 2.89366C23.9586 2.78083 24.0063 2.63718 23.9993 2.49088C23.9993 2.40697 23.9993 2.42375 23.8933 2.4685Z" fill="#656767"/>
</svg>
