<svg xmlns="http://www.w3.org/2000/svg" width="20" height="20" viewBox="0 0 20 20" fill="none">
  <path d="M19.7804 18.4796L15.0863 13.7865C16.4468 12.1531 17.1252 10.058 16.9804 7.93716C16.8356 5.8163 15.8788 3.8329 14.3089 2.39957C12.739 0.966243 10.6769 0.193337 8.55164 0.241637C6.42638 0.289937 4.40157 1.15572 2.8984 2.65889C1.39523 4.16206 0.529439 6.18688 0.481139 8.31214C0.432839 10.4374 1.20575 12.4995 2.63907 14.0694C4.0724 15.6393 6.0558 16.5961 8.17666 16.7409C10.2975 16.8857 12.3926 16.2073 14.026 14.8468L18.7191 19.5409C18.7888 19.6105 18.8715 19.6658 18.9626 19.7035C19.0536 19.7412 19.1512 19.7606 19.2497 19.7606C19.3483 19.7606 19.4459 19.7412 19.5369 19.7035C19.6279 19.6658 19.7107 19.6105 19.7804 19.5409C19.85 19.4712 19.9053 19.3884 19.943 19.2974C19.9807 19.2064 20.0001 19.1088 20.0001 19.0102C20.0001 18.9117 19.9807 18.8141 19.943 18.7231C19.9053 18.632 19.85 18.5493 19.7804 18.4796ZM1.99973 8.51022C1.99973 7.1752 2.39561 5.87016 3.13731 4.76012C3.87901 3.65009 4.93321 2.78493 6.16661 2.27404C7.40001 1.76315 8.75721 1.62947 10.0666 1.88992C11.376 2.15037 12.5787 2.79325 13.5227 3.73725C14.4667 4.68126 15.1096 5.88399 15.37 7.19336C15.6305 8.50274 15.4968 9.85994 14.9859 11.0933C14.475 12.3267 13.6099 13.3809 12.4998 14.1226C11.3898 14.8643 10.0848 15.2602 8.74973 15.2602C6.96012 15.2582 5.24439 14.5464 3.97895 13.281C2.71351 12.0156 2.00171 10.2998 1.99973 8.51022Z" fill="#323433"/>
</svg>
