<svg width="17" height="16" viewBox="0 0 17 16" fill="none" xmlns="http://www.w3.org/2000/svg">
<path d="M13.8477 3H2.84767C2.58246 3 2.3281 3.10536 2.14057 3.29289C1.95303 3.48043 1.84767 3.73478 1.84767 4V14C1.84654 14.1906 1.90043 14.3775 2.00286 14.5382C2.1053 14.699 2.25193 14.8268 2.42517 14.9062C2.55756 14.9677 2.70171 14.9997 2.84767 15C3.08243 14.9994 3.30939 14.9157 3.4883 14.7638C3.49128 14.7618 3.49401 14.7595 3.49642 14.7569L5.50392 13H13.8477C14.1129 13 14.3672 12.8946 14.5548 12.7071C14.7423 12.5196 14.8477 12.2652 14.8477 12V4C14.8477 3.73478 14.7423 3.48043 14.5548 3.29289C14.3672 3.10536 14.1129 3 13.8477 3ZM13.8477 12H5.50392C5.26844 11.9999 5.04047 12.0829 4.86017 12.2344L4.85267 12.2413L2.84767 14V4H13.8477V12ZM5.84767 7C5.84767 6.86739 5.90035 6.74021 5.99412 6.64645C6.08789 6.55268 6.21507 6.5 6.34767 6.5H10.3477C10.4803 6.5 10.6075 6.55268 10.7012 6.64645C10.795 6.74021 10.8477 6.86739 10.8477 7C10.8477 7.13261 10.795 7.25979 10.7012 7.35355C10.6075 7.44732 10.4803 7.5 10.3477 7.5H6.34767C6.21507 7.5 6.08789 7.44732 5.99412 7.35355C5.90035 7.25979 5.84767 7.13261 5.84767 7ZM5.84767 9C5.84767 8.86739 5.90035 8.74021 5.99412 8.64645C6.08789 8.55268 6.21507 8.5 6.34767 8.5H10.3477C10.4803 8.5 10.6075 8.55268 10.7012 8.64645C10.795 8.74021 10.8477 8.86739 10.8477 9C10.8477 9.13261 10.795 9.25979 10.7012 9.35355C10.6075 9.44732 10.4803 9.5 10.3477 9.5H6.34767C6.21507 9.5 6.08789 9.44732 5.99412 9.35355C5.90035 9.25979 5.84767 9.13261 5.84767 9Z" fill="#00664E"/>
</svg>
