<svg width="17" height="16" viewBox="0 0 17 16" fill="none" xmlns="http://www.w3.org/2000/svg">
<g clip-path="url(#clip0_3052_1527)">
<path d="M15.8045 7.7975C15.7826 7.74813 15.2533 6.57375 14.0764 5.39687C12.5083 3.82875 10.5277 3 8.34765 3C6.16765 3 4.18703 3.82875 2.6189 5.39687C1.44203 6.57375 0.91015 7.75 0.890775 7.7975C0.862346 7.86144 0.847656 7.93064 0.847656 8.00062C0.847656 8.0706 0.862346 8.1398 0.890775 8.20375C0.91265 8.25312 1.44203 9.42688 2.6189 10.6038C4.18703 12.1713 6.16765 13 8.34765 13C10.5277 13 12.5083 12.1713 14.0764 10.6038C15.2533 9.42688 15.7826 8.25312 15.8045 8.20375C15.833 8.1398 15.8476 8.0706 15.8476 8.00062C15.8476 7.93064 15.833 7.86144 15.8045 7.7975ZM8.34765 12C6.4239 12 4.74328 11.3006 3.35203 9.92188C2.78118 9.35418 2.29552 8.70685 1.91015 8C2.29541 7.29309 2.78109 6.64574 3.35203 6.07812C4.74328 4.69938 6.4239 4 8.34765 4C10.2714 4 11.952 4.69938 13.3433 6.07812C13.9152 6.6456 14.402 7.29295 14.7883 8C14.3377 8.84125 12.3745 12 8.34765 12ZM8.34765 5C7.75431 5 7.17429 5.17595 6.68094 5.50559C6.18759 5.83524 5.80307 6.30377 5.57601 6.85195C5.34895 7.40013 5.28954 8.00333 5.40529 8.58527C5.52105 9.16721 5.80677 9.70176 6.22633 10.1213C6.64589 10.5409 7.18044 10.8266 7.76238 10.9424C8.34432 11.0581 8.94752 10.9987 9.4957 10.7716C10.0439 10.5446 10.5124 10.1601 10.8421 9.66671C11.1717 9.17336 11.3477 8.59334 11.3477 8C11.3468 7.2046 11.0305 6.44202 10.4681 5.87959C9.90563 5.31716 9.14305 5.00083 8.34765 5ZM8.34765 10C7.95209 10 7.56541 9.8827 7.23651 9.66294C6.90761 9.44318 6.65127 9.13082 6.49989 8.76537C6.34852 8.39991 6.30891 7.99778 6.38608 7.60982C6.46325 7.22186 6.65373 6.86549 6.93344 6.58579C7.21314 6.30608 7.56951 6.1156 7.95747 6.03843C8.34543 5.96126 8.74756 6.00087 9.11302 6.15224C9.47847 6.30362 9.79083 6.55996 10.0106 6.88886C10.2304 7.21776 10.3477 7.60444 10.3477 8C10.3477 8.53043 10.1369 9.03914 9.76186 9.41421C9.38679 9.78929 8.87808 10 8.34765 10Z" fill="#00664E"/>
</g>
<defs>
<clipPath id="clip0_3052_1527">
<rect width="16" height="16" fill="white" transform="translate(0.347656)"/>
</clipPath>
</defs>
</svg>
