<svg width="16" height="16" viewBox="0 0 16 16" fill="none" xmlns="http://www.w3.org/2000/svg">
<path d="M14.5004 12.5003C14.5004 12.6329 14.4477 12.7601 14.3539 12.8538C14.2602 12.9476 14.133 13.0003 14.0004 13.0003C13.8678 13.0003 13.7406 12.9476 13.6468 12.8538C13.5531 12.7601 13.5004 12.6329 13.5004 12.5003C13.4987 11.0421 12.9187 9.64411 11.8877 8.61302C10.8566 7.58193 9.45858 7.00193 8.00039 7.00028H3.20727L5.35414 9.14653C5.44796 9.24035 5.50067 9.3676 5.50067 9.50028C5.50067 9.63296 5.44796 9.76021 5.35414 9.85403C5.26032 9.94785 5.13308 10.0006 5.00039 10.0006C4.86771 10.0006 4.74046 9.94785 4.64664 9.85403L1.64664 6.85403C1.60016 6.80759 1.56328 6.75245 1.53811 6.69175C1.51295 6.63105 1.5 6.56599 1.5 6.50028C1.5 6.43457 1.51295 6.36951 1.53811 6.30881C1.56328 6.24811 1.60016 6.19296 1.64664 6.14653L4.64664 3.14653C4.74046 3.05271 4.86771 3 5.00039 3C5.13308 3 5.26032 3.05271 5.35414 3.14653C5.44796 3.24035 5.50067 3.3676 5.50067 3.50028C5.50067 3.63296 5.44796 3.76021 5.35414 3.85403L3.20727 6.00028H8.00039C9.72374 6.0021 11.376 6.6875 12.5946 7.90609C13.8132 9.12469 14.4986 10.7769 14.5004 12.5003Z" fill="#00664E"/>
</svg>
