<svg width="17" height="16" viewBox="0 0 17 16" fill="none" xmlns="http://www.w3.org/2000/svg">
<path d="M14.9727 5.0075C14.8319 4.84795 14.6587 4.72019 14.4648 4.63269C14.2708 4.54519 14.0604 4.49996 13.8477 4.5H10.3477V3.5C10.3477 2.83696 10.0843 2.20107 9.61542 1.73223C9.14658 1.26339 8.5107 1 7.84766 1C7.75477 0.999934 7.6637 1.02574 7.58465 1.07454C7.50561 1.12333 7.44172 1.19318 7.40016 1.27625L5.03891 6H2.34766C2.08244 6 1.82809 6.10536 1.64055 6.29289C1.45301 6.48043 1.34766 6.73478 1.34766 7V12.5C1.34766 12.7652 1.45301 13.0196 1.64055 13.2071C1.82809 13.3946 2.08244 13.5 2.34766 13.5H13.0977C13.4631 13.5001 13.816 13.3668 14.0901 13.1252C14.3643 12.8835 14.5407 12.5501 14.5864 12.1875L15.3364 6.1875C15.363 5.97626 15.3443 5.76179 15.2816 5.55833C15.2189 5.35488 15.1136 5.16711 14.9727 5.0075ZM2.34766 7H4.84766V12.5H2.34766V7ZM14.3439 6.0625L13.5939 12.0625C13.5787 12.1834 13.5199 12.2945 13.4285 12.3751C13.3371 12.4556 13.2195 12.5 13.0977 12.5H5.84766V6.61812L8.14203 2.02875C8.48209 2.09681 8.78806 2.2806 9.00787 2.54884C9.22768 2.81708 9.34775 3.1532 9.34766 3.5V5C9.34766 5.13261 9.40034 5.25979 9.4941 5.35355C9.58787 5.44732 9.71505 5.5 9.84766 5.5H13.8477C13.9186 5.49998 13.9888 5.51505 14.0534 5.54423C14.1181 5.5734 14.1758 5.61601 14.2228 5.66922C14.2697 5.72242 14.3048 5.78501 14.3257 5.85282C14.3466 5.92063 14.3528 5.9921 14.3439 6.0625Z" fill="#00664E"/>
</svg>
