<svg width="56" height="56" viewBox="0 0 56 56" fill="none" xmlns="http://www.w3.org/2000/svg">
<path d="M28 0C12.5612 0 0 12.5612 0 28C0 43.4388 12.5612 56 28 56C43.4388 56 56 43.4388 56 28C56 12.5612 43.4388 0 28 0ZM28 4.30769C41.1105 4.30769 51.6923 14.8895 51.6923 28C51.6923 41.1105 41.1105 51.6923 28 51.6923C14.8895 51.6923 4.30769 41.1105 4.30769 28C4.30769 14.8895 14.8895 4.30769 28 4.30769ZM24.1662 13.5262L21.0646 16.6277L32.4455 28L21.0689 39.3723L24.1705 42.4738L37.0935 29.5508L38.5711 28L37.0914 26.4492L24.1662 13.5262Z" fill="#CBCDCC"/>
</svg>
