<svg width="60" height="60" viewBox="0 0 60 60" fill="none" xmlns="http://www.w3.org/2000/svg">
<circle cx="30" cy="30" r="30" fill="#F4F4F4"/>
<path d="M30 17C21.7148 17 15 22.3782 15 29.0157C15 31.881 16.2539 34.5037 18.3398 36.566C17.6074 39.4775 15.1582 42.0712 15.1289 42.1001C15 42.233 14.9648 42.4294 15.041 42.6027C15.1172 42.776 15.2812 42.88 15.4688 42.88C19.3535 42.88 22.2656 41.043 23.707 39.9107C25.623 40.6213 27.75 41.0314 30 41.0314C38.2852 41.0314 45 35.6532 45 29.0157C45 22.3782 38.2852 17 30 17ZM22.5117 32.7129H21.7969C21.5391 32.7129 21.3281 32.5049 21.3281 32.2507V31.3264C21.3281 31.0723 21.5391 30.8643 21.7969 30.8643H22.5176C22.8691 30.8643 23.127 30.6621 23.127 30.483C23.127 30.4079 23.0801 30.327 23.0039 30.2635L21.7207 29.1775C21.2227 28.7615 20.9414 28.1665 20.9414 27.5542C20.9414 26.3237 22.0547 25.3243 23.4258 25.3243H24.1406C24.3984 25.3243 24.6094 25.5323 24.6094 25.7865V26.7108C24.6094 26.965 24.3984 27.1729 24.1406 27.1729H23.4199C23.0684 27.1729 22.8105 27.3751 22.8105 27.5542C22.8105 27.6293 22.8574 27.7102 22.9336 27.7737L24.2168 28.8597C24.7148 29.2757 24.9961 29.8707 24.9961 30.483C25.002 31.7135 23.8828 32.7129 22.5117 32.7129ZM33.75 32.2507C33.75 32.5049 33.5391 32.7129 33.2812 32.7129H32.3438C32.0859 32.7129 31.875 32.5049 31.875 32.2507V28.3109L30.4219 31.5344C30.252 31.8752 29.7539 31.8752 29.584 31.5344L28.125 28.3109V32.2507C28.125 32.5049 27.9141 32.7129 27.6562 32.7129H26.7188C26.4609 32.7129 26.25 32.5049 26.25 32.2507V26.2429C26.25 25.7345 26.6719 25.3186 27.1875 25.3186H28.125C28.4824 25.3186 28.8047 25.515 28.9629 25.8269L30 27.8719L31.0371 25.8269C31.1953 25.515 31.5234 25.3186 31.875 25.3186H32.8125C33.3281 25.3186 33.75 25.7345 33.75 26.2429V32.2507ZM36.5801 32.7129H35.8594C35.6016 32.7129 35.3906 32.5049 35.3906 32.2507V31.3264C35.3906 31.0723 35.6016 30.8643 35.8594 30.8643H36.5801C36.9316 30.8643 37.1895 30.6621 37.1895 30.483C37.1895 30.4079 37.1426 30.327 37.0664 30.2635L35.7832 29.1775C35.2852 28.7615 35.0039 28.1665 35.0039 27.5542C35.0039 26.3237 36.1172 25.3243 37.4883 25.3243H38.2031C38.4609 25.3243 38.6719 25.5323 38.6719 25.7865V26.7108C38.6719 26.965 38.4609 27.1729 38.2031 27.1729H37.4824C37.1309 27.1729 36.873 27.3751 36.873 27.5542C36.873 27.6293 36.9199 27.7102 36.9961 27.7737L38.2793 28.8597C38.7773 29.2757 39.0586 29.8707 39.0586 30.483C39.0645 31.7135 37.9512 32.7129 36.5801 32.7129Z" fill="#00664E"/>
</svg>
