<svg width="31" height="30" viewBox="0 0 31 30" fill="none" xmlns="http://www.w3.org/2000/svg">
<rect x="0.467651" width="29.7874" height="29.8235" rx="14.8937" fill="white"/>
<path d="M12.8818 14.9508C12.8818 13.577 13.9934 12.4631 15.3651 12.4631C16.7368 12.4631 17.8491 13.577 17.8491 14.9508C17.8491 16.3246 16.7368 17.4385 15.3651 17.4385C13.9934 17.4385 12.8818 16.3246 12.8818 14.9508ZM11.539 14.9508C11.539 17.0672 13.2519 18.7827 15.3651 18.7827C17.4783 18.7827 19.1913 17.0672 19.1913 14.9508C19.1913 12.8344 17.4783 11.1189 15.3651 11.1189C13.2519 11.1189 11.539 12.8344 11.539 14.9508ZM18.4486 10.9669C18.4485 11.1441 18.5009 11.3172 18.5991 11.4645C18.6973 11.6118 18.8369 11.7267 19.0003 11.7945C19.1636 11.8623 19.3434 11.8802 19.5169 11.8457C19.6903 11.8112 19.8497 11.726 19.9748 11.6008C20.0999 11.4756 20.1851 11.3161 20.2197 11.1424C20.2542 10.9687 20.2366 10.7886 20.169 10.6249C20.1014 10.4613 19.9868 10.3214 19.8398 10.2229C19.6928 10.1245 19.52 10.0719 19.3431 10.0718H19.3428C19.1057 10.0719 18.8784 10.1662 18.7108 10.3341C18.5431 10.5019 18.4488 10.7295 18.4486 10.9669ZM12.3548 21.0251C11.6283 20.992 11.2335 20.8708 10.9711 20.7684C10.6232 20.6328 10.375 20.4712 10.114 20.2102C9.85301 19.9492 9.69146 19.7008 9.55663 19.3524C9.45433 19.0897 9.33332 18.6942 9.3003 17.9666C9.26418 17.18 9.25696 16.9437 9.25696 14.9509C9.25696 12.958 9.26477 12.7224 9.3003 11.9351C9.33338 11.2075 9.45529 10.8127 9.55663 10.5493C9.69206 10.2009 9.85337 9.95228 10.114 9.69092C10.3746 9.42955 10.6226 9.26776 10.9711 9.13272C11.2334 9.03028 11.6283 8.90908 12.3548 8.87601C13.1402 8.83983 13.3762 8.83261 15.3651 8.83261C17.3541 8.83261 17.5903 8.84043 18.3764 8.87601C19.1028 8.90914 19.497 9.03123 19.7601 9.13272C20.108 9.26776 20.3562 9.42991 20.6172 9.69092C20.8782 9.95193 21.0391 10.2009 21.1745 10.5493C21.2768 10.812 21.3978 11.2075 21.4309 11.9351C21.467 12.7224 21.4742 12.958 21.4742 14.9509C21.4742 16.9437 21.467 17.1793 21.4309 17.9666C21.3978 18.6942 21.2762 19.0896 21.1745 19.3524C21.0391 19.7008 20.8778 19.9494 20.6172 20.2102C20.3566 20.471 20.108 20.6328 19.7601 20.7684C19.4978 20.8708 19.1028 20.992 18.3764 21.0251C17.5909 21.0613 17.355 21.0685 15.3651 21.0685C13.3753 21.0685 13.14 21.0613 12.3548 21.0251ZM12.2931 7.53347C11.4999 7.56965 10.9578 7.69562 10.4845 7.88009C9.99423 8.0706 9.57922 8.32617 9.16451 8.74085C8.7498 9.15553 8.49526 9.57182 8.30504 10.0628C8.12085 10.5372 7.99507 11.0797 7.95894 11.8742C7.92222 12.6698 7.91382 12.9242 7.91382 14.9508C7.91382 16.9774 7.92222 17.2318 7.95894 18.0274C7.99507 18.8219 8.12085 19.3644 8.30504 19.8388C8.49526 20.3295 8.74986 20.7462 9.16451 21.1607C9.57916 21.5752 9.99423 21.8305 10.4845 22.0215C10.9587 22.206 11.4999 22.3319 12.2931 22.3681C13.088 22.4043 13.3416 22.4133 15.3651 22.4133C17.3887 22.4133 17.6427 22.4049 18.4372 22.3681C19.2305 22.3319 19.7721 22.206 20.2458 22.0215C20.7357 21.8305 21.1511 21.5754 21.5658 21.1607C21.9805 20.7461 22.2345 20.3295 22.4252 19.8388C22.6094 19.3644 22.7358 18.8219 22.7713 18.0274C22.8075 17.2312 22.8159 16.9774 22.8159 14.9508C22.8159 12.9242 22.8075 12.6698 22.7713 11.8742C22.7352 11.0797 22.6094 10.5369 22.4252 10.0628C22.2345 9.57211 21.9798 9.15618 21.5658 8.74085C21.1517 8.32552 20.7357 8.0706 20.2464 7.88009C19.7721 7.69562 19.2304 7.56906 18.4378 7.53347C17.6433 7.4973 17.3893 7.48828 15.3657 7.48828C13.3422 7.48828 13.088 7.4967 12.2931 7.53347Z" fill="#252533"/>
</svg>
