<svg width="30" height="30" viewBox="0 0 30 30" fill="none" xmlns="http://www.w3.org/2000/svg">
<rect x="0.212524" width="29.7874" height="29.8235" rx="14.8937" fill="white"/>
<path d="M12.8705 20.9554V12.8992H10.1984V20.9554H12.8708H12.8705ZM11.535 11.7994C12.4667 11.7994 13.0467 11.1808 13.0467 10.4077C13.0292 9.61698 12.4667 9.01562 11.5527 9.01562C10.6382 9.01562 10.0409 9.61698 10.0409 10.4076C10.0409 11.1807 10.6207 11.7994 11.5175 11.7994H11.5348L11.535 11.7994ZM14.3496 20.9554H17.0215V16.4569C17.0215 16.2164 17.039 15.9754 17.1096 15.8036C17.3026 15.3223 17.7423 14.8242 18.4806 14.8242C19.4473 14.8242 19.8342 15.5629 19.8342 16.646V20.9554H22.5061V16.3362C22.5061 13.8618 21.188 12.7103 19.43 12.7103C17.9887 12.7103 17.3556 13.5176 17.0039 14.0674H17.0217V12.8994H14.3497C14.3846 13.6552 14.3495 20.9556 14.3495 20.9556L14.3496 20.9554Z" fill="#252533"/>
</svg>
