<svg width="31" height="30" viewBox="0 0 31 30" fill="none" xmlns="http://www.w3.org/2000/svg">
<rect x="0.936035" width="29.7874" height="29.8235" rx="14.8937" fill="white"/>
<path d="M23.2223 10.1903C22.7304 10.4024 22.2134 10.5501 21.6838 10.6297C21.9314 10.5872 22.2957 10.1406 22.4407 9.9599C22.661 9.68726 22.8288 9.37602 22.9358 9.04199C22.9358 9.01718 22.9605 8.98174 22.9358 8.96402C22.9233 8.9572 22.9093 8.95362 22.8951 8.95362C22.8809 8.95362 22.8669 8.9572 22.8544 8.96402C22.2795 9.27605 21.6675 9.5142 21.0331 9.67283C21.011 9.6796 20.9875 9.68021 20.965 9.67459C20.9426 9.66897 20.9221 9.65734 20.9058 9.64094C20.8564 9.58201 20.8032 9.52637 20.7466 9.47437C20.4879 9.24204 20.1943 9.05188 19.8766 8.91086C19.4478 8.73458 18.9847 8.65823 18.5221 8.68759C18.0733 8.71599 17.6351 8.83663 17.2348 9.04199C16.8406 9.25851 16.4941 9.55265 16.2163 9.90674C15.9239 10.2712 15.7129 10.6941 15.5974 11.1472C15.5021 11.5781 15.4912 12.0234 15.5655 12.4584C15.5655 12.5329 15.5655 12.5435 15.5019 12.5329C12.9803 12.1607 10.9114 11.2641 9.22087 9.33969C9.1466 9.25464 9.1077 9.25464 9.04757 9.33969C8.31196 10.4596 8.66916 12.2316 9.58867 13.107C9.71245 13.224 9.83977 13.3374 9.97416 13.4437C9.55257 13.4137 9.14128 13.2992 8.76465 13.107C8.69391 13.0609 8.65501 13.0857 8.65148 13.1708C8.64145 13.2887 8.64145 13.4073 8.65148 13.5252C8.72527 14.0903 8.94752 14.6257 9.29549 15.0765C9.64346 15.5273 10.1047 15.8775 10.632 16.0911C10.7605 16.1463 10.8944 16.1878 11.0316 16.2151C10.6413 16.2921 10.241 16.3041 9.84685 16.2506C9.76197 16.2328 9.73014 16.2789 9.76197 16.3604C10.2818 17.778 11.41 18.2104 12.2376 18.4514C12.3508 18.4691 12.4639 18.4691 12.5912 18.4975C12.5912 18.4975 12.5912 18.4975 12.57 18.5187C12.326 18.9653 11.3393 19.2665 10.8866 19.4225C10.0603 19.7199 9.17939 19.8336 8.30489 19.7556C8.16696 19.7344 8.13513 19.7379 8.09977 19.7556C8.0644 19.7733 8.09977 19.8123 8.13867 19.8478C8.3155 19.9647 8.49233 20.0675 8.67623 20.1667C9.22371 20.466 9.80251 20.7037 10.4021 20.8755C13.5072 21.7332 17.0014 21.1024 19.332 18.781C21.164 16.9594 21.8076 14.4466 21.8076 11.9304C21.8076 11.8347 21.9243 11.778 21.9915 11.7284C22.455 11.3665 22.8636 10.9391 23.2046 10.4596C23.2636 10.3881 23.2939 10.2971 23.2894 10.2044C23.2894 10.1513 23.2894 10.1619 23.2223 10.1903Z" fill="#252533"/>
</svg>
