<svg
              width="60"
              height="61"
              viewBox="0 0 60 61"
              fill="none"
              xmlns="http://www.w3.org/2000/svg"
            >
              <path
                d="M59.0057 20.8489L30.8807 5.84891C30.6094 5.70446 30.3068 5.62891 29.9994 5.62891C29.6921 5.62891 29.3894 5.70446 29.1182 5.84891L0.993164 20.8489C0.693174 21.0088 0.442291 21.2472 0.267352 21.5387C0.0924125 21.8301 0 22.1637 0 22.5036C0 22.8435 0.0924125 23.1771 0.267352 23.4685C0.442291 23.76 0.693174 23.9984 0.993164 24.1583L7.49941 27.6294V38.9778C7.49746 39.8988 7.83642 40.7879 8.45098 41.4739C11.5213 44.8934 18.4002 50.6286 29.9994 50.6286C33.8454 50.6604 37.6626 49.9638 41.2494 48.5755V56.2536C41.2494 56.7509 41.447 57.2278 41.7986 57.5794C42.1502 57.931 42.6271 58.1286 43.1244 58.1286C43.6217 58.1286 44.0986 57.931 44.4502 57.5794C44.8019 57.2278 44.9994 56.7509 44.9994 56.2536V46.7637C47.4444 45.3523 49.6539 43.5675 51.5478 41.4739C52.1624 40.7879 52.5014 39.8988 52.4994 38.9778V27.6294L59.0057 24.1583C59.3056 23.9984 59.5565 23.76 59.7315 23.4685C59.9064 23.1771 59.9988 22.8435 59.9988 22.5036C59.9988 22.1637 59.9064 21.8301 59.7315 21.5387C59.5565 21.2472 59.3056 21.0088 59.0057 20.8489ZM29.9994 46.8786C19.858 46.8786 13.8932 41.9239 11.2494 38.9778V29.6286L29.1182 39.1583C29.3894 39.3027 29.6921 39.3783 29.9994 39.3783C30.3068 39.3783 30.6094 39.3027 30.8807 39.1583L41.2494 33.6294V44.4903C38.2963 45.8684 34.5744 46.8786 29.9994 46.8786ZM48.7494 38.9684C47.6255 40.2157 46.3679 41.3357 44.9994 42.3083V31.6278L48.7494 29.6286V38.9684ZM44.0619 27.8802L44.0103 27.8497L30.8853 20.8489C30.4474 20.6252 29.9392 20.5825 29.4701 20.73C29.0011 20.8775 28.6087 21.2033 28.3775 21.6373C28.1464 22.0713 28.095 22.5788 28.2344 23.0503C28.3738 23.5218 28.6929 23.9197 29.1229 24.1583L40.0775 30.0036L29.9994 35.3778L5.85879 22.5036L29.9994 9.62937L54.14 22.5036L44.0619 27.8802Z"
                fill="#F7F7F7"
              />
            </svg>
