<svg
              width="57"
              height="46"
              viewBox="0 0 57 46"
              fill="none"
              xmlns="http://www.w3.org/2000/svg"
            >
              <path
                d="M14.3244 14.5704L4.80413 22.504L14.3244 30.4376C14.5191 30.5934 14.6807 30.7864 14.7998 31.0055C14.9189 31.2245 14.9932 31.4651 15.0182 31.7131C15.0432 31.9612 15.0185 32.2117 14.9455 32.4501C14.8726 32.6885 14.7528 32.91 14.5932 33.1015C14.4336 33.2931 14.2374 33.4509 14.0161 33.5657C13.7948 33.6805 13.5528 33.75 13.3043 33.7702C13.0558 33.7903 12.8057 33.7607 12.5688 33.6831C12.3319 33.6055 12.1128 33.4813 11.9244 33.318L0.674438 23.943C0.463341 23.7671 0.293508 23.5468 0.17696 23.298C0.0604123 23.0491 0 22.7776 0 22.5028C0 22.228 0.0604123 21.9565 0.17696 21.7076C0.293508 21.4587 0.463341 21.2385 0.674438 21.0626L11.9244 11.6876C12.3067 11.3693 12.7998 11.2159 13.2951 11.2612C13.7905 11.3065 14.2476 11.5467 14.5658 11.929C14.8841 12.3113 15.0375 12.8043 14.9922 13.2997C14.9469 13.795 14.7067 14.2521 14.3244 14.5704ZM55.5744 21.0626L44.3244 11.6876C44.1352 11.53 43.9167 11.4112 43.6815 11.3381C43.4463 11.2649 43.199 11.2388 42.9537 11.2612C42.7085 11.2836 42.47 11.3541 42.252 11.4687C42.0339 11.5833 41.8406 11.7397 41.683 11.929C41.3648 12.3113 41.2114 12.8043 41.2567 13.2997C41.302 13.795 41.5422 14.2521 41.9244 14.5704L51.4448 22.504L41.9244 30.4376C41.7298 30.5934 41.5682 30.7864 41.4491 31.0055C41.3299 31.2245 41.2557 31.4651 41.2307 31.7131C41.2057 31.9612 41.2304 32.2117 41.3033 32.4501C41.3763 32.6885 41.4961 32.91 41.6557 33.1015C41.8153 33.2931 42.0115 33.4509 42.2328 33.5657C42.4541 33.6805 42.6961 33.75 42.9446 33.7702C43.1931 33.7903 43.4431 33.7607 43.6801 33.6831C43.917 33.6055 44.1361 33.4813 44.3244 33.318L55.5744 23.943C55.7855 23.7671 55.9554 23.5468 56.0719 23.298C56.1885 23.0491 56.2489 22.7776 56.2489 22.5028C56.2489 22.228 56.1885 21.9565 56.0719 21.7076C55.9554 21.4587 55.7855 21.2385 55.5744 21.0626ZM36.2643 0.116468C36.0328 0.0324362 35.7871 -0.00518313 35.5411 0.00575827C35.2951 0.0166997 35.0537 0.0759878 34.8306 0.180237C34.6075 0.284486 34.4072 0.431654 34.2409 0.613339C34.0747 0.795023 33.946 1.00767 33.8619 1.23912L18.8619 42.4891C18.7775 42.7207 18.7396 42.9667 18.7504 43.2129C18.7612 43.4592 18.8204 43.7009 18.9247 43.9242C19.0289 44.1476 19.1762 44.3482 19.3581 44.5146C19.54 44.6809 19.7529 44.8098 19.9846 44.8938C20.19 44.9668 20.4064 45.0041 20.6244 45.004C21.0095 45.004 21.3852 44.8854 21.7006 44.6644C22.0159 44.4435 22.2555 44.1308 22.3869 43.7688L37.3869 2.51881C37.471 2.28736 37.5086 2.04162 37.4976 1.79562C37.4867 1.54963 37.4274 1.3082 37.3232 1.08512C37.2189 0.862042 37.0718 0.661681 36.8901 0.495479C36.7084 0.329276 36.4957 0.200488 36.2643 0.116468Z"
                fill="#F7F7F7"
              />
            </svg>
