<svg width="64" height="71" viewBox="0 0 64 71" fill="none" xmlns="http://www.w3.org/2000/svg">
  <path d="M61.8304 16.0403C61.6622 15.6342 61.3775 15.287 61.0121 15.0428C60.6467 14.7985 60.217 14.6681 59.7775 14.668H51.3245C50.1426 12.6573 48.4606 10.9867 46.442 9.81842C44.4234 8.65018 42.1368 8.02412 39.8046 8.00112C38.0671 7.97833 36.3426 8.30328 34.7325 8.95685C33.1224 9.61042 31.6594 10.5794 30.4293 11.8068C29.1634 13.0491 28.1586 14.532 27.474 16.1683C26.7894 17.8046 26.4389 19.5612 26.4431 21.3349V23.0266C15.2594 20.0765 6.11185 10.979 6.01463 10.8818C5.71648 10.581 5.3386 10.3717 4.92547 10.2784C4.51235 10.1852 4.08119 10.212 3.68277 10.3556C3.28435 10.4992 2.93526 10.7537 2.67661 11.089C2.41796 11.4244 2.26052 11.8267 2.22284 12.2485C1.02557 25.5239 4.88126 34.4075 8.33415 39.5216C10.0178 42.0497 12.0659 44.315 14.4121 46.244C10.1814 51.1137 3.5201 53.6721 3.44788 53.6998C3.13429 53.8173 2.85131 54.0041 2.62006 54.2463C2.38881 54.4885 2.21529 54.7798 2.11245 55.0985C2.0096 55.4171 1.98011 55.7549 2.02616 56.0866C2.07221 56.4183 2.19262 56.7352 2.3784 57.0138C2.58674 57.325 3.4201 58.4167 5.45628 59.4361C7.97303 60.6973 11.2981 61.3362 15.3316 61.3362C34.9628 61.3362 51.3661 46.219 53.0412 26.7684L61.3498 18.4626C61.6605 18.1516 61.872 17.7555 61.9575 17.3243C62.0431 16.8932 61.9988 16.4463 61.8304 16.0403ZM49.3299 24.21C48.9489 24.5919 48.7199 25.0994 48.6855 25.6378C47.5549 43.1634 32.91 56.8916 15.3316 56.8916C12.3982 56.8916 10.3314 56.5027 8.88139 56.036C12.0787 54.2999 16.5372 51.3137 19.404 47.0135C19.5722 46.7607 19.6869 46.476 19.7408 46.1771C19.7947 45.8782 19.7869 45.5715 19.7176 45.2757C19.6484 44.98 19.5192 44.7016 19.3382 44.4578C19.1572 44.2139 18.9281 44.0097 18.665 43.8579C18.5345 43.7829 6.46742 36.541 6.44242 17.1903C10.887 20.8015 19.0123 26.4045 28.2959 27.9657C28.6141 28.0193 28.9401 28.003 29.2514 27.9179C29.5626 27.8329 29.8516 27.681 30.0982 27.473C30.3449 27.2649 30.5433 27.0057 30.6796 26.7132C30.8159 26.4208 30.8869 26.1021 30.8877 25.7795V21.3349C30.8852 20.1494 31.1198 18.9755 31.5778 17.882C32.0358 16.7886 32.7078 15.7978 33.5544 14.968C34.366 14.1549 35.3323 13.5128 36.3963 13.0796C37.4603 12.6463 38.6004 12.4308 39.7491 12.4457C43.2659 12.4902 46.5521 14.6347 47.9271 17.782C48.1005 18.1777 48.3854 18.5143 48.747 18.7506C49.1086 18.9869 49.5313 19.1127 49.9633 19.1126H54.4079L49.3299 24.21Z" fill="#F7F7F7"/>
  <rect x="20" y="38" width="32" height="32.8" rx="16" fill="#F7F7F7"/>
  <path d="M36 58C36.9545 57.999 37.8696 57.6194 38.5445 56.9445C39.2194 56.2696 39.599 55.3545 39.6 54.4V49.6C39.6 48.6452 39.2207 47.7295 38.5456 47.0544C37.8705 46.3793 36.9548 46 36 46C35.0452 46 34.1295 46.3793 33.4544 47.0544C32.7793 47.7295 32.4 48.6452 32.4 49.6V54.4C32.401 55.3545 32.7806 56.2696 33.4555 56.9445C34.1304 57.6194 35.0455 57.999 36 58ZM33.6 49.6C33.6 48.9635 33.8529 48.353 34.3029 47.9029C34.753 47.4529 35.3635 47.2 36 47.2C36.6365 47.2 37.247 47.4529 37.6971 47.9029C38.1471 48.353 38.4 48.9635 38.4 49.6V54.4C38.4 55.0365 38.1471 55.647 37.6971 56.0971C37.247 56.5471 36.6365 56.8 36 56.8C35.3635 56.8 34.753 56.5471 34.3029 56.0971C33.8529 55.647 33.6 55.0365 33.6 54.4V49.6ZM36.6 60.37V62.2C36.6 62.3591 36.5368 62.5117 36.4243 62.6243C36.3117 62.7368 36.1591 62.8 36 62.8C35.8409 62.8 35.6883 62.7368 35.5757 62.6243C35.4632 62.5117 35.4 62.3591 35.4 62.2V60.37C33.9207 60.2195 32.5498 59.5258 31.5524 58.423C30.5549 57.3203 30.0018 55.8869 30 54.4C30 54.2409 30.0632 54.0883 30.1757 53.9757C30.2883 53.8632 30.4409 53.8 30.6 53.8C30.7591 53.8 30.9117 53.8632 31.0243 53.9757C31.1368 54.0883 31.2 54.2409 31.2 54.4C31.2 55.673 31.7057 56.8939 32.6059 57.7941C33.5061 58.6943 34.727 59.2 36 59.2C37.273 59.2 38.4939 58.6943 39.3941 57.7941C40.2943 56.8939 40.8 55.673 40.8 54.4C40.8 54.2409 40.8632 54.0883 40.9757 53.9757C41.0883 53.8632 41.2409 53.8 41.4 53.8C41.5591 53.8 41.7117 53.8632 41.8243 53.9757C41.9368 54.0883 42 54.2409 42 54.4C41.9982 55.8869 41.4451 57.3203 40.4476 58.423C39.4502 59.5258 38.0793 60.2195 36.6 60.37Z" fill="#00664E"/>
</svg>
